<?xml version="1.0" encoding="utf-8"?>
<!-- Generator: Adobe Illustrator 21.0.2, SVG Export Plug-In . SVG Version: 6.00 Build 0)  -->
<svg version="1.1" id="Layer_1" xmlns="http://www.w3.org/2000/svg" xmlns:xlink="http://www.w3.org/1999/xlink" x="0px" y="0px"
	 width="20px" height="20px" viewBox="0 0 20 20" style="enable-background:new 0 0 20 20;" xml:space="preserve">
<g>
	<g>
		<path d="M18,0H2C0.9,0,0,0.9,0,2v5c0,1.1,0.9,2,2,2h7v7.8c0,0.2,0.1,0.3,0.2,0.4c0.1,0.1,0.3,0.1,0.5,0.1l2.8-1.1l0.8,3.5
			c0,0.1,0.1,0.3,0.3,0.3c0.1,0,0.2,0.1,0.2,0.1c0.1,0,0.1,0,0.2,0l3.3-1.3c0.1-0.1,0.2-0.2,0.3-0.3c0-0.1,0-0.3,0-0.4l-1.8-3.1
			l2.9-1.2c0.2-0.1,0.3-0.2,0.3-0.4s0-0.3-0.1-0.5L15.3,9H18c1.1,0,2-0.9,2-2V2C20,0.9,19.1,0,18,0z M14.9,14.2
			c-0.1,0.1-0.2,0.2-0.3,0.3c0,0.1,0,0.3,0,0.4l1.8,3.1l-2.2,0.9l-0.8-3.5c0-0.1-0.1-0.3-0.3-0.3C13,15,13,15,12.9,15
			c-0.1,0-0.1,0-0.2,0L10,16.1V4.8l7.7,8.3L14.9,14.2z"/>
	</g>
</g>
</svg>
