<?xml version="1.0" encoding="utf-8"?>
<!-- Generator: Adobe Illustrator 21.0.2, SVG Export Plug-In . SVG Version: 6.00 Build 0)  -->
<svg version="1.1" id="Layer_1" xmlns="http://www.w3.org/2000/svg" xmlns:xlink="http://www.w3.org/1999/xlink" x="0px" y="0px"
	 width="19px" height="19px" viewBox="0 0 19 19" style="enable-background:new 0 0 19 19;" xml:space="preserve">
<g>
	<g>
		<path d="M4.5,8h1C5.8,8,6,7.8,6,7.5S5.8,7,5.5,7h-1C4.2,7,4,7.2,4,7.5S4.2,8,4.5,8z M7.5,8h1C8.8,8,9,7.8,9,7.5S8.8,7,8.5,7h-1
			C7.2,7,7,7.2,7,7.5S7.2,8,7.5,8z M10.5,8h1C11.8,8,12,7.8,12,7.5S11.8,7,11.5,7h-1C10.2,7,10,7.2,10,7.5S10.2,8,10.5,8z M13.5,8h1
			C14.8,8,15,7.8,15,7.5S14.8,7,14.5,7h-1C13.2,7,13,7.2,13,7.5S13.2,8,13.5,8z M5.5,11h-1C4.2,11,4,11.2,4,11.5S4.2,12,4.5,12h1
			C5.8,12,6,11.8,6,11.5S5.8,11,5.5,11z M8.5,11h-1C7.2,11,7,11.2,7,11.5S7.2,12,7.5,12h1C8.8,12,9,11.8,9,11.5S8.8,11,8.5,11z
			 M11.5,11h-1c-0.3,0-0.5,0.2-0.5,0.5s0.2,0.5,0.5,0.5h1c0.3,0,0.5-0.2,0.5-0.5S11.8,11,11.5,11z M14.5,11h-1
			c-0.3,0-0.5,0.2-0.5,0.5s0.2,0.5,0.5,0.5h1c0.3,0,0.5-0.2,0.5-0.5S14.8,11,14.5,11z M2,9.5C2,9.8,2.2,10,2.5,10h14
			c0.3,0,0.5-0.2,0.5-0.5S16.8,9,16.5,9h-14C2.2,9,2,9.2,2,9.5z M19,7.5C19,7.5,19,7.5,19,7.5C19,7.5,19,7.5,19,7.5V2
			c0-1.1-0.9-2-2-2H2C0.9,0,0,0.9,0,2v15c0,1.1,0.9,2,2,2h15c1.1,0,2-0.9,2-2v-5.5c0,0,0,0,0,0s0,0,0,0V7.5z M18,7h-1.5
			C16.2,7,16,7.2,16,7.5S16.2,8,16.5,8H18v3h-1.5c-0.3,0-0.5,0.2-0.5,0.5s0.2,0.5,0.5,0.5H18v5c0,0.6-0.4,1-1,1H2c-0.6,0-1-0.4-1-1
			v-5h1.5C2.8,12,3,11.8,3,11.5S2.8,11,2.5,11H1V8h1.5C2.8,8,3,7.8,3,7.5S2.8,7,2.5,7H1V2c0-0.6,0.4-1,1-1h15c0.6,0,1,0.4,1,1V7z"/>
	</g>
</g>
</svg>
