<?xml version="1.0" encoding="utf-8"?>
<!-- Generator: Adobe Illustrator 21.0.2, SVG Export Plug-In . SVG Version: 6.00 Build 0)  -->
<svg version="1.1" id="Layer_1" xmlns="http://www.w3.org/2000/svg" xmlns:xlink="http://www.w3.org/1999/xlink" x="0px" y="0px"
	 width="20px" height="20px" viewBox="0 0 20 20" style="enable-background:new 0 0 20 20;" xml:space="preserve">
<g>
	<path d="M18,0H2C0.9,0,0,0.9,0,2v16c0,1.1,0.9,2,2,2h16c1.1,0,2-0.9,2-2V2C20,0.9,19.1,0,18,0z M19,18c0,0.6-0.4,1-1,1H2
		c-0.6,0-1-0.4-1-1V2c0-0.6,0.4-1,1-1h16c0.6,0,1,0.4,1,1V18z M14.8,9.2c-0.2-0.2-0.5-0.2-0.7,0l-2.6,2.6L4.8,5.2
		C4.7,5.1,4.6,5,4.5,5C4.3,5,4.2,5.1,4.1,5.2l-1.9,2C2,7.3,2,7.7,2.2,7.8C2.4,8,2.7,8,2.9,7.8l1.6-1.6l6.7,6.6
		c0.1,0.1,0.2,0.1,0.4,0.1c0,0,0,0,0,0c0.1,0,0.3-0.1,0.4-0.1l2.6-2.6l2.7,2.6c0.2,0.2,0.5,0.2,0.7,0s0.2-0.5,0-0.7L14.8,9.2z M12,7
		c1.1,0,2-0.9,2-2c0-1.1-0.9-2-2-2c-1.1,0-2,0.9-2,2C10,6.1,10.9,7,12,7z M12,4c0.6,0,1,0.4,1,1s-0.4,1-1,1s-1-0.4-1-1S11.5,4,12,4z
		"/>
</g>
</svg>
