<?xml version="1.0" encoding="utf-8"?>
<!-- Generator: Adobe Illustrator 21.0.2, SVG Export Plug-In . SVG Version: 6.00 Build 0)  -->
<svg version="1.1" id="Layer_1" xmlns="http://www.w3.org/2000/svg" xmlns:xlink="http://www.w3.org/1999/xlink" x="0px" y="0px"
	 width="19px" height="19px" viewBox="0 0 19 19" style="enable-background:new 0 0 19 19;" xml:space="preserve">
<g>
	<g>
		<path d="M19,9.5c0-5.2-4.1-9.3-9.2-9.5c0,0-0.1,0-0.1,0c0,0,0,0,0,0c0,0-0.1,0-0.1,0C4.3,0,0,4.3,0,9.5C0,14.7,4.3,19,9.5,19
			c0,0,0.1,0,0.1,0c0,0,0,0,0,0c0,0,0.1,0,0.1,0C14.9,18.8,19,14.7,19,9.5z M11.7,5H7.6c0.5-2.5,1.4-3.9,2-4c0,0,0.1,0,0.1,0
			C10.3,1.1,11.2,2.5,11.7,5z M9.7,18C9.7,18,9.7,18,9.7,18c-0.7,0-1.6-1.5-2.1-4h4.1C11.2,16.5,10.3,17.9,9.7,18z M7.4,13
			c-0.1-0.9-0.2-1.9-0.3-3h5c0,1.1-0.1,2.1-0.3,3H7.4z M1,10h5.2c0,1.1,0.1,2.1,0.2,3H1.8C1.3,12.1,1.1,11.1,1,10z M1.8,6h4.7
			C6.3,6.9,6.2,7.9,6.2,9H1C1.1,7.9,1.3,6.9,1.8,6z M7.2,9c0-1.1,0.1-2.1,0.2-3h4.5c0.1,0.9,0.2,1.9,0.2,3H7.2z M8,1.1
			C7.4,2,6.9,3.4,6.6,5H2.3C3.6,3,5.6,1.6,8,1.1z M2.3,14h4.3c0.3,1.6,0.8,3,1.4,3.9C5.6,17.4,3.6,16,2.3,14z M11.4,17.8
			c0.6-0.9,1.1-2.2,1.4-3.8h1.9c0.3,0,0.5-0.2,0.5-0.5S14.9,13,14.7,13h-1.7c0.1-0.9,0.2-2,0.2-3h2.5c0.3,0,0.5-0.2,0.5-0.5
			S15.9,9,15.7,9h-2.5c0-1-0.1-2.1-0.2-3h1.8c0.3,0,0.5-0.2,0.5-0.5S15,5,14.7,5h-1.9c-0.3-1.6-0.8-2.9-1.4-3.8
			C15.2,2.1,18,5.5,18,9.5S15.2,16.9,11.4,17.8z"/>
	</g>
</g>
</svg>
