<?xml version="1.0" encoding="utf-8"?>
<!-- Generator: Adobe Illustrator 21.0.2, SVG Export Plug-In . SVG Version: 6.00 Build 0)  -->
<svg version="1.1" id="Layer_1" xmlns="http://www.w3.org/2000/svg" xmlns:xlink="http://www.w3.org/1999/xlink" x="0px" y="0px"
	 width="17px" height="17.9px" viewBox="0 0 17 17.9" style="enable-background:new 0 0 17 17.9;" xml:space="preserve">
<g>
	<g>
		<path d="M16.7,0.1c-0.2-0.1-0.4,0-0.5,0.1l-4.4,4.4L8.9,0.2c-0.2-0.3-0.7-0.3-0.8,0L5.3,4.5L0.9,0.2C0.7,0,0.5,0,0.3,0.1
			C0.1,0.2,0,0.3,0,0.5v10.1c0,2.7,1.5,5,3.8,6.3c0,0,0,0,0,0c1.2,0.6,2.5,1,3.9,1h1.4c4.3,0,7.8-3.3,7.8-7.3V0.5
			C17,0.3,16.9,0.2,16.7,0.1z M8.5,1.4L11,5.3L8.5,7.8L6,5.3L8.5,1.4z M1,10.6V1.7l6.8,6.7L6.4,9.9c-1.5,1.5-2.5,3.5-2.8,5.7
			C2,14.4,1,12.6,1,10.6z M16,10.6c0,3.5-3,6.3-6.8,6.3H7.8c-1.2,0-2.3-0.3-3.2-0.8c0.1-2.1,1-4.1,2.5-5.5l1.7-1.8c0,0,0,0,0,0
			L16,1.7V10.6z"/>
	</g>
</g>
</svg>
