<?xml version="1.0" encoding="utf-8"?>
<!-- Generator: Adobe Illustrator 21.0.2, SVG Export Plug-In . SVG Version: 6.00 Build 0)  -->
<svg version="1.1" id="Layer_1" xmlns="http://www.w3.org/2000/svg" xmlns:xlink="http://www.w3.org/1999/xlink" x="0px" y="0px"
	 width="20px" height="20px" viewBox="0 0 20 20" style="enable-background:new 0 0 20 20;" xml:space="preserve">
<g>
	<g>
		<path d="M18,0H2C0.9,0,0,0.9,0,2v16c0,1.1,0.9,2,2,2h16c1.1,0,2-0.9,2-2V2C20,0.9,19.1,0,18,0z M19,18c0,0.6-0.4,1-1,1H2
			c-0.6,0-1-0.4-1-1V2c0-0.6,0.4-1,1-1h16c0.6,0,1,0.4,1,1V18z M16.1,3H14C13.4,3,13,3.4,13,3.9v0.1C13,4.6,13.4,5,14,5h2.1
			C16.6,5,17,4.6,17,4.1V3.9C17,3.4,16.6,3,16.1,3z M14,4l2-0.1L16.1,4H14z M11.1,3H9C8.4,3,8,3.4,8,3.9v0.1C8,4.6,8.4,5,9,5h2.1
			C11.6,5,12,4.6,12,4.1V3.9C12,3.4,11.6,3,11.1,3z M9,4l2-0.1L11.1,4H9z M6.1,3H4C3.4,3,3,3.4,3,3.9v0.1C3,4.6,3.4,5,4,5h2.1
			C6.6,5,7,4.6,7,4.1V3.9C7,3.4,6.6,3,6.1,3z M4,4l2-0.1L6.1,4H4z"/>
	</g>
</g>
</svg>
