<?xml version="1.0" encoding="utf-8"?>
<!-- Generator: Adobe Illustrator 21.0.2, SVG Export Plug-In . SVG Version: 6.00 Build 0)  -->
<svg version="1.1" id="Layer_1" xmlns="http://www.w3.org/2000/svg" xmlns:xlink="http://www.w3.org/1999/xlink" x="0px" y="0px"
	 width="27px" height="27px" viewBox="0 0 27 27" style="enable-background:new 0 0 27 27;" xml:space="preserve">
<style type="text/css">
	.st0{fill:#231F20;}
</style>
<path class="st0" d="M13.5,0C6,0,0,6,0,13.5C0,21,6,27,13.5,27S27,21,27,13.5C27,6,21,0,13.5,0z M19.1,14.6h-4.5v4.5
	c0,0.6-0.5,1.1-1.1,1.1s-1.1-0.5-1.1-1.1v-4.5H7.9c-0.6,0-1.1-0.5-1.1-1.1s0.5-1.1,1.1-1.1h4.5V7.9c0-0.6,0.5-1.1,1.1-1.1
	s1.1,0.5,1.1,1.1v4.5h4.5c0.6,0,1.1,0.5,1.1,1.1S19.7,14.6,19.1,14.6z"/>
</svg>
