<?xml version="1.0" encoding="utf-8"?>
<!-- Generator: Adobe Illustrator 21.0.2, SVG Export Plug-In . SVG Version: 6.00 Build 0)  -->
<svg version="1.1" id="Layer_1" xmlns="http://www.w3.org/2000/svg" xmlns:xlink="http://www.w3.org/1999/xlink" x="0px" y="0px"
	 width="20px" height="20px" viewBox="0 0 20 20" style="enable-background:new 0 0 20 20;" xml:space="preserve">
<g>
	<g>
		<path d="M18,0H2C0.9,0,0,0.9,0,2v5c0,1.1,0.9,2,2,2h16c1.1,0,2-0.9,2-2V2C20,0.9,19.1,0,18,0z M18,11H2c-1.1,0-2,0.9-2,2v5
			c0,1.1,0.9,2,2,2h16c1.1,0,2-0.9,2-2v-5C20,11.9,19.1,11,18,11z M19,18c0,0.6-0.4,1-1,1H2c-0.6,0-1-0.4-1-1v-5c0-0.6,0.4-1,1-1h16
			c0.6,0,1,0.4,1,1V18z"/>
	</g>
</g>
</svg>
