<?xml version="1.0" encoding="utf-8"?>
<!-- Generator: Adobe Illustrator 21.0.2, SVG Export Plug-In . SVG Version: 6.00 Build 0)  -->
<svg version="1.1" id="Layer_1" xmlns="http://www.w3.org/2000/svg" xmlns:xlink="http://www.w3.org/1999/xlink" x="0px" y="0px"
	 width="19.5px" height="19.5px" viewBox="0 0 19.5 19.5" style="enable-background:new 0 0 19.5 19.5;" xml:space="preserve">
<g>
	<g>
		<path d="M12.5,0c-3.9,0-7,3.1-7,7c0,1.6,0.5,3,1.4,4.2c0,0,0,0-0.1,0l-6.5,6.6c-0.4,0.4-0.4,1,0,1.4c0.2,0.2,0.4,0.3,0.7,0.3
			c0.3,0,0.5-0.1,0.7-0.3l6.5-6.6c0,0,0,0,0-0.1c1.2,0.9,2.6,1.4,4.2,1.4c3.9,0,7-3.1,7-7C19.5,3.1,16.4,0,12.5,0z M12.5,13
			c-3.3,0-6-2.7-6-6s2.7-6,6-6s6,2.7,6,6S15.8,13,12.5,13z"/>
	</g>
</g>
</svg>
