<?xml version="1.0" encoding="utf-8"?>
<!-- Generator: Adobe Illustrator 21.0.2, SVG Export Plug-In . SVG Version: 6.00 Build 0)  -->
<svg version="1.1" id="Layer_1" xmlns="http://www.w3.org/2000/svg" xmlns:xlink="http://www.w3.org/1999/xlink" x="0px" y="0px"
	 width="20px" height="18px" viewBox="0 0 20 18" style="enable-background:new 0 0 20 18;" xml:space="preserve">
<g>
	<g>
		<path d="M19.9,2.2C19.8,2.1,19.6,2,19.5,2h-13C6.2,2,6,2.2,6,2.5S6.2,3,6.5,3h12.3l-2.7,8H6.9L3.6,0.3C3.5,0.1,3.3,0,3.1,0H0.5
			C0.2,0,0,0.2,0,0.5S0.2,1,0.5,1h2.2l3.4,10.6C6.1,11.8,6.3,12,6.5,12h9.9c0.2,0,0.4-0.1,0.5-0.3l3.1-9C20,2.5,20,2.3,19.9,2.2z
			 M14.5,13c-1.4,0-2.5,1.1-2.5,2.5c0,1.4,1.1,2.5,2.5,2.5c1.4,0,2.5-1.1,2.5-2.5C17,14.1,15.9,13,14.5,13z M14.5,17
			c-0.8,0-1.5-0.7-1.5-1.5c0-0.8,0.7-1.5,1.5-1.5s1.5,0.7,1.5,1.5C16,16.3,15.3,17,14.5,17z M8.5,13C7.1,13,6,14.1,6,15.5
			C6,16.9,7.1,18,8.5,18c1.4,0,2.5-1.1,2.5-2.5C11,14.1,9.9,13,8.5,13z M8.5,17C7.7,17,7,16.3,7,15.5C7,14.7,7.7,14,8.5,14
			c0.8,0,1.5,0.7,1.5,1.5C10,16.3,9.3,17,8.5,17z"/>
	</g>
</g>
</svg>
