<?xml version="1.0" encoding="utf-8"?>
<!-- Generator: Adobe Illustrator 21.0.2, SVG Export Plug-In . SVG Version: 6.00 Build 0)  -->
<svg version="1.1" id="Layer_1" xmlns="http://www.w3.org/2000/svg" xmlns:xlink="http://www.w3.org/1999/xlink" x="0px" y="0px"
	 width="20px" height="20px" viewBox="0 0 20 20" style="enable-background:new 0 0 20 20;" xml:space="preserve">
<g>
	<g>
		<path d="M17,14c-1,0-1.9,0.5-2.4,1.2l-8.7-4.4C5.9,10.6,6,10.3,6,10c0-0.3-0.1-0.6-0.1-0.9l8.8-4.3C15.2,5.5,16,6,17,6
			c1.7,0,3-1.3,3-3c0-1.7-1.3-3-3-3s-3,1.3-3,3c0,0.3,0.1,0.6,0.2,0.9L5.4,8.2C4.9,7.5,4,7,3,7c-1.7,0-3,1.3-3,3c0,1.7,1.3,3,3,3
			c1,0,1.9-0.5,2.4-1.2l8.7,4.4C14.1,16.4,14,16.7,14,17c0,1.7,1.3,3,3,3s3-1.3,3-3C20,15.3,18.7,14,17,14z M17,1c1.1,0,2,0.9,2,2
			c0,1.1-0.9,2-2,2s-2-0.9-2-2C15,1.9,15.9,1,17,1z M3,12c-1.1,0-2-0.9-2-2c0-1.1,0.9-2,2-2s2,0.9,2,2C5,11.1,4.1,12,3,12z M17,19
			c-1.1,0-2-0.9-2-2c0-1.1,0.9-2,2-2s2,0.9,2,2C19,18.1,18.1,19,17,19z"/>
	</g>
</g>
</svg>
