<?xml version="1.0" encoding="utf-8"?>
<!-- Generator: Adobe Illustrator 21.0.2, SVG Export Plug-In . SVG Version: 6.00 Build 0)  -->
<svg version="1.1" id="Layer_1" xmlns="http://www.w3.org/2000/svg" xmlns:xlink="http://www.w3.org/1999/xlink" x="0px" y="0px"
	 width="20px" height="19px" viewBox="0 0 20 19" style="enable-background:new 0 0 20 19;" xml:space="preserve">
<g>
	<path d="M15.8,0H1.1C0.5,0,0,0.5,0,1v1.6c0,0.6,0.5,1,1.1,1s1.1-0.4,1.1-1V2h5.3v15h-1c-0.6,0-1.1,0.4-1.1,1s0.5,1,1.1,1h4.2
		c0.6,0,1.1-0.4,1.1-1s-0.5-1-1.1-1H9.5V2h5.3v0.6c0,0.6,0.5,1,1.1,1c0.6,0,1.1-0.4,1.1-1V1C16.8,0.5,16.4,0,15.8,0z M19.5,0
		c-0.3,0-0.5,0.2-0.5,0.5v18c0,0.3,0.2,0.5,0.5,0.5s0.5-0.2,0.5-0.5v-18C20,0.2,19.8,0,19.5,0z"/>
</g>
</svg>
