<?xml version="1.0" encoding="utf-8"?>
<!-- Generator: Adobe Illustrator 21.0.2, SVG Export Plug-In . SVG Version: 6.00 Build 0)  -->
<svg version="1.1" id="Layer_1" xmlns="http://www.w3.org/2000/svg" xmlns:xlink="http://www.w3.org/1999/xlink" x="0px" y="0px"
	 width="16px" height="11px" viewBox="0 0 16 11" style="enable-background:new 0 0 16 11;" xml:space="preserve">
<style type="text/css">
	.st0{fill-rule:evenodd;clip-rule:evenodd;}
</style>
<g>
	<path class="st0" d="M15.7,4.7C14.5,3.1,11.5,0,8,0C4.5,0,1.5,3.1,0.3,4.7c-0.4,0.5-0.4,1.2,0,1.7C1.5,7.9,4.5,11,8,11
		c3.5,0,6.5-3.1,7.7-4.7C16.1,5.9,16.1,5.1,15.7,4.7z M8,9.2c-1.9,0-3.5-1.6-3.5-3.7S6.1,1.8,8,1.8c1.9,0,3.5,1.6,3.5,3.7
		S9.9,9.2,8,9.2z"/>
	<ellipse class="st0" cx="8" cy="5.5" rx="2.1" ry="2.2"/>
</g>
</svg>
