<?xml version="1.0" encoding="utf-8"?>
<!-- Generator: Adobe Illustrator 21.0.2, SVG Export Plug-In . SVG Version: 6.00 Build 0)  -->
<svg version="1.1" id="Layer_1" xmlns="http://www.w3.org/2000/svg" xmlns:xlink="http://www.w3.org/1999/xlink" x="0px" y="0px"
	 width="238px" height="164px" viewBox="0 0 238 164" style="enable-background:new 0 0 238 164;" xml:space="preserve">
<style type="text/css">
	.st0{fill:#7F7F7F;}
</style>
<path class="st0" d="M38.8,121.8l29.6-29.4c0.2-0.2,0.3-0.5,0.3-0.8V73.4c0-0.3-0.1-0.5-0.3-0.7L38.8,42.9c-0.7-0.7-1.8-0.2-1.8,0.7
	V121C37,122,38.2,122.4,38.8,121.8z M202.9,31.4l29.8-29.6c0.7-0.7,0.2-1.8-0.7-1.8H6.3C5.3,0,4.9,1.1,5.5,1.8l29.4,29.6
	c0.2,0.2,0.5,0.3,0.8,0.3h166.5C202.4,31.7,202.7,31.6,202.9,31.4z M199.2,42.6L169.6,72c-0.2,0.2-0.3,0.5-0.3,0.8v18.4
	c0,0.3,0.1,0.6,0.3,0.7l29.6,29.5c0.7,0.7,1.8,0.2,1.8-0.7V43.3C201,42.4,199.8,41.9,199.2,42.6z M165.1,95.4H73.3
	c-0.3,0-0.5,0.1-0.7,0.3l-29.8,29.6c-0.7,0.7-0.2,1.8,0.7,1.8h151.3c0.9,0,1.4-1.1,0.7-1.8l-29.7-29.6
	C165.6,95.5,165.4,95.4,165.1,95.4z M165.9,68.2l29.8-29.6c0.7-0.7,0.2-1.8-0.7-1.8H42.8c-0.9,0-1.4,1.1-0.8,1.8l29.4,29.6
	c0.2,0.2,0.5,0.3,0.8,0.3h92.9C165.4,68.6,165.7,68.4,165.9,68.2z M206.3,36v92.1c0,0.3,0.1,0.6,0.3,0.7l29.6,29.5
	c0.7,0.7,1.8,0.2,1.8-0.7V6.6c0-0.9-1.1-1.4-1.8-0.8l-29.6,29.4C206.4,35.4,206.3,35.7,206.3,36z M35.5,132.5L5.6,162.1
	C5,162.8,5.4,164,6.4,164h225.3c0.9,0,1.4-1.1,0.7-1.8l-29.7-29.6c-0.2-0.2-0.5-0.3-0.7-0.3H36.2C36,132.2,35.7,132.3,35.5,132.5z
	 M31.4,35.4L1.8,5.6C1.1,4.9,0,5.4,0,6.3v151.4c0,0.9,1.1,1.4,1.8,0.8l29.6-29.4c0.2-0.2,0.3-0.5,0.3-0.8V36.1
	C31.7,35.9,31.6,35.6,31.4,35.4z"/>
</svg>
