<?xml version="1.0" encoding="utf-8"?>
<!-- Generator: Adobe Illustrator 21.0.2, SVG Export Plug-In . SVG Version: 6.00 Build 0)  -->
<svg version="1.1" id="Layer_1" xmlns="http://www.w3.org/2000/svg" xmlns:xlink="http://www.w3.org/1999/xlink" x="0px" y="0px"
	 width="16px" height="10.8px" viewBox="0 0 16 10.8" style="enable-background:new 0 0 16 10.8;" xml:space="preserve">
<style type="text/css">
	.st0{fill-rule:evenodd;clip-rule:evenodd;}
</style>
<path class="st0" d="M13.5,4.6c0-0.1,0-0.2,0-0.3c0-2.2-1.3-4.3-4-4.3c-2.2,0-3,1.3-3.6,2.7C5.5,2.4,5.1,2.2,4.6,2.2
	c-1.1,0-2,0.9-2,2c0,0.1,0,0.2,0,0.3C1.1,4.8,0,6.1,0,7.7c0,1.7,1.4,3.2,3.1,3.2h4.5V7.7H6.2c-0.4,0-0.6-0.5-0.4-0.8l2.2-2.7
	C8.3,4,8.7,4,8.8,4.2l2.2,2.7c0.3,0.3,0,0.8-0.4,0.8H9.3v3.1h3.6c1.7,0,3.1-1.4,3.1-3.2C16,6.1,14.9,4.9,13.5,4.6z"/>
</svg>
