<?xml version="1.0" encoding="utf-8"?>
<!-- Generator: Adobe Illustrator 21.0.2, SVG Export Plug-In . SVG Version: 6.00 Build 0)  -->
<svg version="1.1" id="Layer_1" xmlns="http://www.w3.org/2000/svg" xmlns:xlink="http://www.w3.org/1999/xlink" x="0px" y="0px"
	 width="16px" height="7px" viewBox="0 0 16 7" style="enable-background:new 0 0 16 7;" xml:space="preserve">
<style type="text/css">
	.st0{fill:#231F20;}
</style>
<g>
	<g>
		<path class="st0" d="M15.8,3.2l-3-3c-0.2-0.2-0.5-0.2-0.7,0s-0.2,0.5,0,0.7L14.3,3H0.5l0,0C0.2,3,0,3.2,0,3.5S0.2,4,0.5,4h13.8
			l-2.1,2.1c-0.2,0.2-0.2,0.5,0,0.7c0,0.1,0.1,0.2,0.3,0.2c0.1,0,0.3,0,0.4-0.1l3-3c0-0.1,0.1-0.3,0.1-0.4S15.9,3.3,15.8,3.2z"/>
	</g>
</g>
</svg>
